<?xml version="1.0" encoding="utf-8"?>
<svg xmlns="http://www.w3.org/2000/svg" width="834.73187" height="525.85234" viewBox="0 0 834.73187 525.85234" role="img" artist="Katerina Limpitsouni" source="https://undraw.co/">
  <g transform="matrix(0.695272, 0, 0, 0.695272, -370.757027, 10.034381)" style="">
    <path d="m678.82471,90.60093h36.48566v1.37559c0,9.05546-7.35187,16.40734-16.40735,16.40734h-3.67096c-9.05548,0-16.40735-7.35188-16.40735-16.40734v-1.37559h0Z" style="fill: rgb(34, 39, 30);"/>
    <path d="m795.67798,70.54903l-62.95227-13.41594-.32764-3.66126c-.02423-.27127-.06091-.54075-.10406-.80902l29.77313-13.11113c3.06604-5.51884,8.27826-2.45282,8.27826-2.45282,0,0,10.11786,1.53301,7.97168-8.27826s-15.9433-2.75942-15.9433-2.75942l-36.17236,11.26673-5.91113-14.04052c-1.81946-4.32177-6.05194-7.13209-10.74109-7.13209h-21.04333c-4.50269,0-8.60254,2.59384-10.53113,6.66261l-6.92957,14.61959-36.52441-11.37632s-13.79712-7.05185-15.9433,2.75942,7.97168,8.27826,7.97168,8.27826c0,0,5.21222-3.06602,8.27826,2.45282l29.13458,12.82998-.57062,1.20365c-.58905,1.24288-.94812,2.57767-1.07153,3.94181l-61.10333,13.02191c-5.14392,1.09646-8.00928,6.6141-5.94702,11.45237l1.44055,3.37981c2.09302,4.91072,8.26929,6.73656,12.53784,3.53131,1.51495-1.13748,2.58435-2.79565,2.58435-5.21014l51.20007-11.91976c3.09631,13.58541,15.25073,23.72394,29.77393,23.72394h9.96069c14.74261,0,26.87299-10.39453,29.8421-24.01557l52.45337,12.21139c0,2.41449,1.06934,4.07266,2.58435,5.21014,4.26855,3.20525,10.44482,1.37941,12.53784-3.53131l1.44055-3.37981c2.06226-4.83827-.8031-10.35591-5.94708-11.45237,0,0-.00006,0-.00006,0Z" style="fill: rgb(34, 39, 30);"/>
    <path d="m766.35962,15.41823l-30.96686-15.41823s-3.20361.13761-1.75513,1.75512c1.44849,1.61751,34.86816,17.25422,34.86816,17.25422l-2.14624-3.59111s.00006,0,.00006,0Z" style="fill: rgb(58, 255, 22);"/>
    <path d="m774.63788,21.76875s1.53302,5.82544,6.74524,9.19806,34.33942,11.65088,34.33942,11.65088l4.29242-2.75942-32.19324-17.78292-10.73108-1.22641-2.45282.91981s.00006,0,.00006,0Z" style="fill: rgb(58, 255, 22);"/>
    <path d="m795.11768,73.4544s5.7403,1.82623,11.38037-.76828,28.23383-22.75499,28.23383-22.75499l-.03058-5.10278-32.26202,17.65776-6.78424,8.40439-.53729,2.56392-.00006-.00002Z" style="fill: rgb(58, 255, 22);"/>
    <path d="m797.95203,74.17428s-4.82367-3.6081-11.00269-3.00719c-6.17908.60091-34.13574,12.23477-34.13574,12.23477l-1.6449,4.83049,36.2691-6.09823,9.16571-5.71402,1.34857-2.24582s-.00006,0-.00006,0Z" style="fill: rgb(58, 255, 22);"/>
    <path d="m630.53485,15.41823l30.9668-15.41823s3.20361.13761,1.75513,1.75512c-1.44849,1.61751-34.86816,17.25422-34.86816,17.25422,0,0,2.14624-3.59111,2.14624-3.59111Z" style="fill: rgb(58, 255, 22);"/>
    <path d="m622.25659,21.76875s-1.53302,5.82544-6.74524,9.19806-34.33942,11.65088-34.33942,11.65088l-4.29242-2.75942,32.19324-17.78292,10.73108-1.22641,2.45282.91981s-.00006,0-.00006,0Z" style="fill: rgb(58, 255, 22);"/>
    <path d="m601.77679,73.4544s-5.7403,1.82623-11.38037-.76828-28.23383-22.75499-28.23383-22.75499l.03058-5.10278,32.26202,17.65776,6.78424,8.40439.53729,2.56392.00006-.00002Z" style="fill: rgb(58, 255, 22);"/>
    <path d="m598.94238,74.17428s4.82367-3.6081,11.00269-3.00719,34.13574,12.23477,34.13574,12.23477l1.6449,4.83049-36.2691-6.09823-9.16571-5.71402-1.34857-2.24582s.00006,0,.00006,0Z" style="fill: rgb(58, 255, 22);"/>
    <circle cx="770.80536" cy="23.14846" r="8.58484" fill="#3f3d56"/>
    <circle cx="625.01599" cy="23.91497" r="8.58484" fill="#3f3d56"/>
  </g>
  <path d="M 525.235 494.547 L 525.122 494.536 L 349.371 478.21 L 189.555 493.056 C 180.865 493.863 173.167 487.473 172.36 478.784 C 172.315 478.298 172.292 477.812 172.292 477.323 L 172.292 97.232 C 172.259 89.059 178.49 82.222 186.632 81.499 L 349.371 66.381 L 349.483 66.392 L 525.235 82.718 L 685.047 67.872 C 693.742 67.065 701.438 73.455 702.246 82.144 C 702.291 82.63 702.313 83.117 702.313 83.605 L 702.313 463.696 C 702.349 471.869 696.117 478.706 687.973 479.429 L 525.235 494.547 Z" style="stroke-width: 1; transform-origin: 437.302px 280.464px; fill: rgb(81, 91, 58);"/>
  <path d="M 417.284 206.996 C 383.263 182.219 347.468 158.724 310.901 137.168 L 309.065 136.086 L 309.065 209.196 L 420.305 209.196 L 417.284 206.996 Z M 311.496 206.765 L 311.496 140.346 C 346.283 160.924 380.346 183.252 412.83 206.765 L 311.496 206.765 Z M 589.46 357.245 C 574.747 341.949 559.653 327 544.179 312.401 C 539.912 308.372 535.619 304.375 531.301 300.41 C 504.943 276.198 477.719 253.171 449.628 231.329 L 449.3 231.074 L 309.065 231.074 L 309.065 359.305 L 591.442 359.305 L 589.46 357.245 Z M 311.496 356.875 L 311.496 233.506 L 448.467 233.506 C 475.553 254.575 501.907 276.825 527.527 300.252 C 531.975 304.318 536.393 308.417 540.781 312.547 C 556.12 326.962 571.101 341.738 585.723 356.875 L 311.496 356.875 Z M 589.46 357.245 C 574.747 341.949 559.653 327 544.179 312.401 C 539.912 308.372 535.619 304.375 531.301 300.41 C 504.943 276.198 477.719 253.171 449.628 231.329 L 449.3 231.074 L 309.065 231.074 L 309.065 359.305 L 591.442 359.305 L 589.46 357.245 Z M 311.496 356.875 L 311.496 233.506 L 448.467 233.506 C 475.553 254.575 501.907 276.825 527.527 300.252 C 531.975 304.318 536.393 308.417 540.781 312.547 C 556.12 326.962 571.101 341.738 585.723 356.875 L 311.496 356.875 Z M 417.284 206.996 C 383.263 182.219 347.468 158.724 310.901 137.168 L 309.065 136.086 L 309.065 209.196 L 420.305 209.196 L 417.284 206.996 Z M 311.496 206.765 L 311.496 140.346 C 346.283 160.924 380.346 183.252 412.83 206.765 L 311.496 206.765 Z M 417.284 206.996 C 383.263 182.219 347.468 158.724 310.901 137.168 L 309.065 136.086 L 309.065 209.196 L 420.305 209.196 L 417.284 206.996 Z M 311.496 206.765 L 311.496 140.346 C 346.283 160.924 380.346 183.252 412.83 206.765 L 311.496 206.765 Z M 589.46 357.245 C 574.747 341.949 559.653 327 544.179 312.401 C 539.912 308.372 535.619 304.375 531.301 300.41 C 504.943 276.198 477.719 253.171 449.628 231.329 L 449.3 231.074 L 309.065 231.074 L 309.065 359.305 L 591.442 359.305 L 589.46 357.245 Z M 311.496 356.875 L 311.496 233.506 L 448.467 233.506 C 475.553 254.575 501.907 276.825 527.527 300.252 C 531.975 304.318 536.393 308.417 540.781 312.547 C 556.12 326.962 571.101 341.738 585.723 356.875 L 311.496 356.875 Z M 188.747 381.184 L 188.747 383.615 L 284.756 383.615 L 284.756 418.864 L 188.747 418.864 L 188.747 421.294 L 287.187 421.294 L 287.187 381.184 L 188.747 381.184 Z M 309.065 443.172 L 309.065 467.804 L 311.497 467.579 L 311.497 445.604 L 685.856 445.604 L 685.856 443.172 L 309.065 443.172 Z M 685.856 383.615 L 685.856 381.184 L 309.065 381.184 L 309.065 421.294 L 685.856 421.294 L 685.856 418.864 L 311.496 418.864 L 311.496 383.615 L 685.856 383.615 Z M 458.841 206.765 C 412.205 170.79 362.954 138.339 311.496 109.68 L 311.496 85.067 L 309.065 85.292 L 309.065 110.095 L 310.937 112.153 C 362.185 140.734 411.236 173.086 457.686 208.941 L 458.014 209.196 L 685.856 209.196 L 685.856 206.765 L 458.841 206.765 Z M 284.756 206.765 L 188.747 206.765 L 188.747 209.196 L 287.187 209.196 L 287.187 87.321 L 284.756 87.546 L 284.756 206.765 Z M 685.856 231.074 L 485.557 231.074 L 488.176 233.226 C 512.837 253.518 537.051 275.04 560.818 297.791 C 564.197 301.024 567.564 304.284 570.919 307.57 C 587.619 323.887 603.993 340.738 620.041 358.121 L 622.046 359.305 L 685.856 359.305 L 685.856 356.875 L 622.199 356.875 C 606.325 339.664 590.107 322.951 573.544 306.737 C 570.232 303.491 566.908 300.268 563.571 297.068 C 540.319 274.758 516.571 253.571 492.327 233.506 L 685.856 233.506 L 685.856 231.074 Z M 188.747 443.172 L 188.747 445.604 L 284.756 445.604 L 284.756 470.059 L 287.187 469.834 L 287.187 443.172 L 188.747 443.172 Z M 188.747 231.074 L 188.747 233.506 L 284.756 233.506 L 284.756 356.875 L 188.747 356.875 L 188.747 359.305 L 287.187 359.305 L 287.187 231.074 L 188.747 231.074 Z M 417.284 206.996 C 383.263 182.219 347.468 158.724 310.901 137.168 L 309.065 136.086 L 309.065 209.196 L 420.305 209.196 L 417.284 206.996 Z M 311.496 206.765 L 311.496 140.346 C 346.283 160.924 380.346 183.252 412.83 206.765 L 311.496 206.765 Z M 589.46 357.245 C 574.747 341.949 559.653 327 544.179 312.401 C 539.912 308.372 535.619 304.375 531.301 300.41 C 504.943 276.198 477.719 253.171 449.628 231.329 L 449.3 231.074 L 309.065 231.074 L 309.065 359.305 L 591.442 359.305 L 589.46 357.245 Z M 311.496 356.875 L 311.496 233.506 L 448.467 233.506 C 475.553 254.575 501.907 276.825 527.527 300.252 C 531.975 304.318 536.393 308.417 540.781 312.547 C 556.12 326.962 571.101 341.738 585.723 356.875 L 311.496 356.875 Z M 417.284 206.996 C 383.263 182.219 347.468 158.724 310.901 137.168 L 309.065 136.086 L 309.065 209.196 L 420.305 209.196 L 417.284 206.996 Z M 311.496 206.765 L 311.496 140.346 C 346.283 160.924 380.346 183.252 412.83 206.765 L 311.496 206.765 Z M 589.46 357.245 C 574.747 341.949 559.653 327 544.179 312.401 C 539.912 308.372 535.619 304.375 531.301 300.41 C 504.943 276.198 477.719 253.171 449.628 231.329 L 449.3 231.074 L 309.065 231.074 L 309.065 359.305 L 591.442 359.305 L 589.46 357.245 Z M 311.496 356.875 L 311.496 233.506 L 448.467 233.506 C 475.553 254.575 501.907 276.825 527.527 300.252 C 531.975 304.318 536.393 308.417 540.781 312.547 C 556.12 326.962 571.101 341.738 585.723 356.875 L 311.496 356.875 Z" fill="#fff" style="stroke-width: 1; transform-origin: 437.302px 280.464px;"/>
  <path d="M 443.756 226.351 C 443.756 257.135 388.018 325.709 388.018 325.709 C 388.018 325.709 332.28 257.135 332.28 226.351 C 332.28 183.445 378.728 156.628 415.886 178.081 C 433.132 188.038 443.756 206.438 443.756 226.351 Z" style="stroke-width: 1; transform-origin: 437.302px 280.464px; fill: rgb(58, 255, 22);"/>
  <path d="M 413.498 223.928 C 413.498 243.543 392.266 255.801 375.279 245.994 C 358.292 236.187 358.292 211.669 375.279 201.862 C 379.152 199.626 383.546 198.448 388.019 198.448 C 402.093 198.442 413.505 209.853 413.498 223.928 Z" fill="#fff" style="isolation: isolate; stroke-width: 1; transform-origin: 437.302px 280.464px;"/>
  <circle cx="388.018" cy="350.912" r="15.025" style="stroke-width: 1; transform-origin: 437.302px 280.464px; fill: rgb(58, 255, 22);"/>
  <circle cx="531.977" cy="140.081" r="22.214" style="stroke-width: 1; transform-origin: 437.302px 280.464px; fill: rgb(255, 221, 180);"/>
  <path d="M 601.638 208.538 L 492.662 208.538 C 492.525 208.54 492.389 208.529 492.255 208.506 L 543.796 119.229 C 545.163 116.812 548.636 116.781 550.045 119.175 C 550.056 119.193 550.067 119.211 550.077 119.229 L 584.668 179.141 L 586.324 182.008 L 601.638 208.538 Z" fill="#fff" style="stroke-width: 1; transform-origin: 437.302px 280.464px;"/>
  <polygon points="601.638 208.538 564.431 208.538 582.696 182.007 584.01 180.096 584.668 179.14 586.324 182.007 601.638 208.538" opacity="0.2" style="isolation: isolate; stroke-width: 1; transform-origin: 437.302px 280.464px;"/>
  <path d="M 662.315 208.538 L 568.06 208.538 L 586.324 182.008 L 587.639 180.097 L 611.44 145.522 C 613 143.256 616.754 143.115 618.588 145.095 C 618.712 145.229 618.826 145.373 618.931 145.522 L 662.315 208.538 Z" fill="#fff" style="stroke-width: 1; transform-origin: 437.302px 280.464px;"/>
  <circle cx="669.309" cy="323.144" r="11.243" fill="#fff" style="stroke-width: 1; transform-origin: 437.302px 280.464px;"/>
  <polygon points="670.394 357.009 668.091 357.009 669.14 321.45 670.394 357.009" fill="#cbcbcb" style="stroke-width: 1; transform-origin: 437.302px 280.464px;"/>
  <polygon points="669.343 328.19 671.816 324.769 669.309 329.036 669.039 328.562 669.343 328.19" fill="#cbcbcb" style="stroke-width: 1; transform-origin: 437.302px 280.464px;"/>
  <polygon points="669.073 331.644 666.6 328.224 669.107 332.49 669.377 332.016 669.073 331.644" fill="#cbcbcb" style="stroke-width: 1; transform-origin: 437.302px 280.464px;"/>
  <circle cx="637.341" cy="306.994" r="16.605" fill="#fff" style="stroke-width: 1; transform-origin: 437.302px 280.464px;"/>
  <polygon points="638.941 357.009 635.54 357.009 637.091 304.492 638.941 357.009" fill="#cbcbcb" style="stroke-width: 1; transform-origin: 437.302px 280.464px;"/>
  <polygon points="637.391 314.445 641.042 309.394 637.341 315.696 636.941 314.996 637.391 314.445" fill="#cbcbcb" style="stroke-width: 1; transform-origin: 437.302px 280.464px;"/>
  <polygon points="636.991 319.547 633.34 314.496 637.041 320.797 637.441 320.097 636.991 319.547" fill="#cbcbcb" style="stroke-width: 1; transform-origin: 437.302px 280.464px;"/>
  <circle cx="251.827" cy="323.144" r="11.243" fill="#fff" style="stroke-width: 1; transform-origin: 437.302px 280.464px;"/>
  <polygon points="252.911 357.009 250.608 357.009 251.658 321.45 252.911 357.009" fill="#cbcbcb" style="stroke-width: 1; transform-origin: 437.302px 280.464px;"/>
  <polygon points="251.861 328.19 254.333 324.769 251.827 329.036 251.556 328.562 251.861 328.19" fill="#cbcbcb" style="stroke-width: 1; transform-origin: 437.302px 280.464px;"/>
  <polygon points="251.59 331.644 249.118 328.224 251.624 332.49 251.894 332.016 251.59 331.644" fill="#cbcbcb" style="stroke-width: 1; transform-origin: 437.302px 280.464px;"/>
  <circle cx="219.859" cy="306.994" r="16.605" fill="#fff" style="stroke-width: 1; transform-origin: 437.302px 280.464px;"/>
  <polygon points="221.459 357.009 218.058 357.009 219.609 304.492 221.459 357.009" fill="#cbcbcb" style="stroke-width: 1; transform-origin: 437.302px 280.464px;"/>
  <polygon points="219.908 314.445 223.559 309.394 219.859 315.696 219.459 314.996 219.908 314.445" fill="#cbcbcb" style="stroke-width: 1; transform-origin: 437.302px 280.464px;"/>
  <polygon points="219.509 319.547 215.857 314.496 219.559 320.797 219.958 320.097 219.509 319.547" fill="#cbcbcb" style="stroke-width: 1; transform-origin: 437.302px 280.464px;"/>
  <g transform="matrix(0.51044, 0, 0, 0.51044, 747.229142, 287.951605)" style="">
    <path d="M402.219,445.911s-13.584,28.3-4.528,29.433,11.32-25.471,11.32-25.471Z" transform="translate(-394.578 -232.742)" fill="#ed9da0"/>
    <path d="M351.5,206.8h0a16.719,16.719,0,0,0-12.3,13.841l-8.075,57.477L319.8,323.961s-5.661,5.093-3.393,7.925-2.83,14.716-2.83,14.716l14.154,4.528s1.7-11.886,4.528-12.453c2.487-.5,30.329-74.873,37.04-92.891.925-2.484,1.449-3.9,1.449-3.9S369.614,203.966,351.5,206.8Z" transform="translate(-310.466 -128.905)" style="fill: rgb(230, 250, 251);"/>
    <path d="M185.733,724.945,174.691,745.9l18.4,5.364,3.919-18.95Z" transform="translate(-126.585 -330.651)" fill="#ed9da0"/>
    <path d="M317.415,792.282l-19.45,9.951s-30.439,7.257-10.62,13.289,28.74,1.744,28.74,1.744,25.926,1.348,25.508-5.885-5.405-17.4-5.405-17.4S318.836,798.508,317.415,792.282Z" transform="translate(-268.517 -379.447)" style="fill: rgb(34, 39, 30);"/>
    <path d="M294.64,435.214l-8.49,102.731s-.283,61.413-9.339,73.3-9.339,17.83-9.339,17.83l-18.679-9.619s9.619-16.031,7.641-18.488a13.686,13.686,0,0,1-2.547-5.285l5.094-63.394-9.619-110.373Z" transform="translate(-195.304 -222.328)" style="fill: rgb(34, 39, 30);"/>
    <path d="M267.578,787.911" transform="translate(-181.26 -381.165)" fill="none" stroke="#3f3d56" stroke-miterlimit="10" stroke-width="1"/>
    <path d="M113.155,723.209l7.924,20.943,22.64-8.49-14.154-14.716Z" transform="translate(-37.026 -328.916)" fill="#ed9da0"/>
    <path d="M249.106,443.741l-4.528,94.524s22.074,62.827,41.319,73.016c0,0,0,12.453,4.528,14.716a11.369,11.369,0,0,1,5.66,6.793l24.9-6.226-11.32-18.113-24.9-60.563s-3.962-1.7-5.094-7.358-3.4-5.66,2.268-6.792,5.66-6.792,5.66-6.792l18.679-86.034Z" transform="translate(-221.654 -230.572)" style="fill: rgb(34, 39, 30);"/>
    <path d="M312.737,146.411s1.7,28.867,3.962,31.7-23.773,2.268-23.773,2.268,1.7-24.339,0-26.6S312.737,146.411,312.737,146.411Z" transform="translate(-244.815 -102.764)" fill="#ed9da0"/>
    <circle cx="22.64" cy="22.64" r="22.64" transform="translate(25.187 19.592)" fill="#ed9da0"/>
    <path d="M282.113,186.634s-21.505-2.268-29.433,4.528a58.239,58.239,0,0,1-8.106,5.8,16.626,16.626,0,0,0-8.067,13.763L232.3,339.458s63.96-5.66,75.846,0c0,0,.566-13.018,1.7-14.716.825-1.238,2.252-50.6,2.965-77.271a58.716,58.716,0,0,0-14.858-40.977c-3.431-3.8-7.263-6.98-11.311-8.537C286.638,197.954,287.77,187.2,282.113,186.634Z" transform="translate(-206.547 -120.063)" style="fill: rgb(230, 250, 251);"/>
    <path d="M348.322,268.411,314.078,361.05S347.19,298.41,348.322,268.411Z" transform="translate(-288.324 -155.71)" opacity="0.1"/>
    <path d="M42.759,41.183c-1.915-.114-3.784.533-5.686.782A14.391,14.391,0,0,1,21.691,31.235a8.232,8.232,0,0,0-.787-2.563c-1.047-1.709-3.431-2.033-5.4-1.642s-3.832,1.313-5.831,1.418a8.928,8.928,0,0,1-7.705-4.361A14.788,14.788,0,0,1,.082,15.154L1.564,16.71a7.526,7.526,0,0,0,.671-4.091,4.747,4.747,0,0,1,4.5,1.15c1.307.139.321-2.424,1.291-3.309a2.245,2.245,0,0,1,1.58-.3c2.779.027,5.028-2.1,7.218-3.811A30.673,30.673,0,0,1,29.774.446,17.04,17.04,0,0,1,39.226.9,20.191,20.191,0,0,1,45.61,5.432c4.66,4.481,8.787,9.746,10.725,15.913a26.788,26.788,0,0,1,.128,15.534c-.782,2.637-3.135,11.666-6.582,11.876C45.549,49.026,48.149,41.507,42.759,41.183Z" transform="translate(35.824 0) rotate(20.972)" style="fill: rgb(34, 39, 30);"/>
    <path d="M239.765,780.645s-7.484-4.637-8.419-2.782-4.677,9.738-4.677,9.738l-4.209,11.593s-25.728,16.231-3.742,17.159,27.6-11.593,27.6-11.593S271.1,794.094,267.36,787.6s-16.838-13.226-16.838-13.226S243.974,785.746,239.765,780.645Z" transform="translate(-153.81 -376.354)" style="fill: rgb(34, 39, 30);"/>
  </g>
</svg>