<svg viewBox="0 0 283.465 283.465" fill="none" stroke-linecap="square" stroke-miterlimit="10" xmlns="http://www.w3.org/2000/svg"><clipPath id="a"><path d="M0 0h283.465v283.465H0z"/></clipPath><g clip-path="url(#a)"><path d="M0 0h283.465v283.465H0z"/><path d="M12.709 96.778h258.047v113.67H12.709z"/><path fill="#434343" d="M38.07 169.778V69.982h20.672v38q3.86-3.797 8.75-6.094 4.906-2.313 11.516-2.313 5.39 0 9.984 2.344 4.61 2.328 7.937 6.828 3.344 4.5 5.235 11.031 1.906 6.532 1.906 14.875 0 7.797-2.172 14.407-2.172 6.593-6.078 11.453-3.89 4.86-9.328 7.594-5.422 2.734-12.031 2.734-3.063 0-5.5-.61-2.422-.593-4.453-1.687t-3.735-2.625q-1.703-1.547-3.297-3.344l-.734 3.469q-.469 2.14-1.703 2.938-1.235.796-3.235.796zm33.734-54.671q-2.265 0-4.109.437-1.828.438-3.39 1.234-1.563.797-2.907 2.032-1.328 1.234-2.656 2.843v29.329q2.328 2.593 5.062 3.64 2.735 1.031 5.735 1.031 2.86 0 5.25-1.14 2.406-1.14 4.172-3.64 1.781-2.5 2.781-6.5t1-9.72q0-5.468-.813-9.203-.796-3.734-2.234-6.031-1.422-2.312-3.422-3.312t-4.469-1"/><path fill="#39ff14" d="M137.932 151.778h36v18H115.4V72.653h22.532z"/><path fill="#434343" d="M205.27 69.982v55.937h3.062q1.937 0 2.969-.531 1.03-.547 1.968-1.938l13.063-19.468q1.125-1.735 2.687-2.532 1.579-.797 3.97-.797h18.937l-17.86 24.594q-1.265 1.735-2.765 3.078-1.5 1.328-3.235 2.39 3 2.267 5.203 6l19.454 33.063h-18.657q-2.343 0-4.047-.765-1.687-.766-2.75-2.703l-13.078-24.47q-.922-1.655-1.922-2.155t-3-.5h-4v30.593h-20.671V69.982zM57.964 197.298q-.36 0-.437-.343l-.172-1.516q-.5.484-.985.875-.484.375-1.015.64-.516.266-1.14.391-.61.14-1.345.14-.609 0-1.187-.187-.563-.171-1.016-.53-.437-.376-.718-.954-.266-.594-.266-1.406 0-.75.422-1.39.437-.657 1.36-1.141.921-.485 2.359-.766 1.453-.297 3.484-.344v-1.25q0-1.656-.719-2.547-.719-.89-2.11-.89-.874 0-1.484.25-.593.234-1.015.515t-.688.532q-.265.234-.437.234-.25 0-.36-.219l-.203-.344q.922-.937 1.953-1.406 1.047-.484 2.344-.484.969 0 1.688.312.718.297 1.187.875.485.563.719 1.375t.234 1.797v7.781zm-4.797-.64q.688 0 1.266-.14.594-.157 1.094-.423.5-.265.922-.64.437-.375.859-.813v-3.11q-1.703.048-2.938.266-1.234.204-2.03.563-.798.36-1.173.86t-.375 1.14q0 .594.188 1.031.203.438.531.719t.75.422q.438.125.906.125m13.348-11.485q1.016 0 1.875.344.86.344 1.485 1.016.625.656.984 1.64.36.97.36 2.22 0 .265-.079.374-.078.094-.25.094h-8.625v.219q0 1.343.313 2.375.312 1.015.875 1.703.578.687 1.39 1.047.828.343 1.828.343.907 0 1.563-.203t1.11-.437q.452-.25.718-.453t.39-.203q.157 0 .235.125l.313.39q-.297.36-.766.672t-1.063.531q-.578.219-1.25.344-.656.14-1.328.14-1.218 0-2.234-.421-1-.438-1.719-1.25t-1.11-1.985q-.39-1.187-.39-2.718 0-1.282.36-2.36.359-1.093 1.046-1.875.704-.797 1.704-1.234 1-.438 2.265-.438m.016.844q-.922 0-1.656.297-.735.281-1.266.828-.531.531-.86 1.297-.328.75-.437 1.688h7.875q0-.97-.266-1.72-.265-.765-.75-1.296-.484-.531-1.156-.813-.672-.28-1.484-.28m7.748 11.281v-11.937h.61q.203 0 .28.094.095.078.11.28l.094 2.517q.578-1.454 1.531-2.266.97-.828 2.375-.828.532 0 .985.11.468.109.875.327l-.157.797q-.03.188-.234.188-.078 0-.219-.047-.125-.047-.328-.11-.187-.062-.484-.109-.281-.047-.656-.047-1.36 0-2.235.844-.86.844-1.406 2.422v7.765zm14.075-12.125q1.297 0 2.297.438 1.016.437 1.719 1.25.703.797 1.062 1.937.36 1.125.36 2.532 0 1.39-.36 2.53-.359 1.126-1.062 1.938-.703.797-1.719 1.235-1 .422-2.297.422-1.281 0-2.297-.422-1-.438-1.703-1.235-.703-.812-1.078-1.937-.36-1.14-.36-2.531 0-1.407.36-2.532.375-1.14 1.078-1.937.703-.813 1.703-1.25 1.016-.438 2.297-.438m0 11.375q1.078 0 1.875-.359.797-.36 1.328-1.047.532-.687.797-1.656.266-.969.266-2.156t-.266-2.157q-.265-.984-.797-1.671-.53-.688-1.328-1.063-.797-.375-1.875-.375-1.062 0-1.86.375-.796.375-1.327 1.063-.532.687-.813 1.671-.265.97-.265 2.157t.265 2.156q.281.969.813 1.656.531.688 1.328 1.047.797.36 1.86.36m9.922-16.703V197.3h-1.14v-17.453zm8.716 5.328q1.015 0 1.875.344.859.344 1.484 1.016.625.656.984 1.64.36.97.36 2.22 0 .265-.078.374-.079.094-.25.094h-8.625v.219q0 1.343.312 2.375.313 1.015.875 1.703.578.687 1.39 1.047.829.343 1.829.343.906 0 1.562-.203.657-.203 1.11-.437.453-.25.718-.453.266-.203.391-.203.156 0 .234.125l.313.39q-.297.36-.766.672-.468.313-1.062.531-.578.219-1.25.344-.656.14-1.328.14-1.22 0-2.235-.421-1-.438-1.718-1.25-.72-.813-1.11-1.985-.39-1.187-.39-2.718 0-1.282.359-2.36.36-1.093 1.047-1.875.703-.797 1.703-1.234 1-.438 2.266-.438m.015.844q-.922 0-1.656.297-.734.281-1.266.828-.531.531-.86 1.297-.327.75-.437 1.688h7.875q0-.97-.265-1.72-.266-.765-.75-1.296-.485-.531-1.156-.813-.672-.28-1.485-.28m11.939 11.281h-1l-5.047-11.937h.906q.172 0 .266.094.11.078.156.187l3.938 9.422q.109.281.171.531l.125.5.125-.5q.063-.265.172-.531l3.953-9.422q.063-.125.157-.203.11-.078.265-.078h.86zm14.907 0q-.36 0-.438-.343l-.172-1.516q-.5.484-.984.875-.484.375-1.016.64-.515.266-1.14.391-.61.14-1.344.14-.61 0-1.188-.187-.562-.171-1.015-.53-.438-.376-.719-.954-.266-.594-.266-1.406 0-.75.422-1.39.438-.657 1.36-1.141.922-.485 2.359-.766 1.453-.297 3.484-.344v-1.25q0-1.656-.718-2.547-.72-.89-2.11-.89-.875 0-1.484.25-.594.234-1.016.515t-.687.532q-.266.234-.438.234-.25 0-.36-.219l-.202-.344q.922-.937 1.953-1.406 1.047-.484 2.344-.484.968 0 1.687.312.719.297 1.188.875.484.563.718 1.375.235.813.235 1.797v7.781zm-4.797-.64q.687 0 1.265-.14.594-.157 1.094-.423.5-.265.922-.64.438-.375.86-.813v-3.11q-1.704.048-2.938.266-1.234.204-2.031.563-.797.36-1.172.86t-.375 1.14q0 .594.187 1.031.203.438.532.719.328.281.75.422.437.125.906.125m8.848.64v-11.937h.625q.312 0 .36.297l.108 1.797q.829-1.032 1.907-1.657 1.093-.625 2.422-.625.984 0 1.734.313.75.297 1.234.89.5.594.75 1.422.25.829.25 1.875v7.625h-1.14v-7.625q0-1.687-.766-2.64t-2.36-.953q-1.171 0-2.187.609-1 .594-1.797 1.656v8.953zm16.25.188q-1.204 0-1.891-.672-.672-.672-.672-2.078v-8.156h-1.719q-.125 0-.219-.063-.078-.078-.078-.203v-.453l2.032-.14.296-4.282q.016-.094.094-.172.078-.094.203-.094h.547v4.563h3.75v.844h-3.75v8.109q0 .484.125.844.125.344.344.578t.516.344q.312.093.656.093.437 0 .734-.125.313-.125.547-.265.234-.156.375-.281t.219-.125q.11 0 .203.125l.312.5q-.453.5-1.156.812-.703.297-1.469.297m12.915-.188q-.36 0-.438-.343l-.171-1.516q-.5.484-.985.875-.484.375-1.015.64-.516.266-1.141.391-.61.14-1.344.14-.61 0-1.187-.187-.563-.171-1.016-.53-.437-.376-.719-.954-.265-.594-.265-1.406 0-.75.422-1.39.437-.657 1.359-1.141.922-.485 2.36-.766 1.452-.297 3.484-.344v-1.25q0-1.656-.72-2.547-.718-.89-2.108-.89-.875 0-1.485.25-.594.234-1.015.515-.422.282-.688.532-.266.234-.437.234-.25 0-.36-.219l-.203-.344q.922-.937 1.953-1.406 1.047-.484 2.344-.484.969 0 1.687.312.72.297 1.188.875.484.563.719 1.375t.234 1.797v7.781zm-4.797-.64q.688 0 1.266-.14.593-.157 1.093-.423.5-.265.922-.64.438-.375.86-.813v-3.11q-1.703.048-2.938.266-1.234.204-2.031.563-.797.36-1.172.86t-.375 1.14q0 .594.188 1.031.203.438.53.719.329.281.75.422.438.125.907.125m8.848.64v-11.937h.625q.312 0 .36.297l.109 1.734q.36-.5.75-.906t.843-.703.954-.453q.515-.157 1.078-.157 1.312 0 2.093.766.782.75 1.047 2.11.22-.75.61-1.282.39-.547.89-.89.516-.36 1.11-.532.593-.172 1.218-.172.891 0 1.594.297.703.282 1.203.86t.766 1.422q.266.828.266 1.921v7.625h-1.157v-7.625q0-1.765-.765-2.671-.75-.922-2.157-.922-.625 0-1.203.234-.562.219-1 .672t-.703 1.125q-.25.672-.25 1.562v7.625h-1.14v-7.625q0-1.75-.704-2.671-.687-.922-2.015-.922-.969 0-1.797.578t-1.484 1.61v9.03zm23.592-12.125q1.016 0 1.875.344.86.344 1.484 1.016.625.656.985 1.64.36.97.36 2.22 0 .265-.079.374-.078.094-.25.094h-8.625v.219q0 1.343.313 2.375.312 1.015.875 1.703.578.687 1.39 1.047.828.343 1.828.343.907 0 1.563-.203t1.11-.437q.452-.25.718-.453t.39-.203q.157 0 .235.125l.312.39q-.296.36-.765.672t-1.063.531q-.578.219-1.25.344-.656.14-1.328.14-1.219 0-2.234-.421-1-.438-1.719-1.25t-1.11-1.985q-.39-1.187-.39-2.718 0-1.282.36-2.36.359-1.093 1.046-1.875.703-.797 1.703-1.234 1-.438 2.266-.438m.016.844q-.922 0-1.657.297-.734.281-1.265.828-.531.531-.86 1.297-.328.75-.437 1.688h7.875q0-.97-.266-1.72-.265-.765-.75-1.296-.484-.531-1.156-.813-.672-.28-1.484-.28m7.748 11.281v-11.937h.625q.313 0 .36.297l.109 1.797q.828-1.032 1.906-1.657 1.094-.625 2.422-.625.984 0 1.734.313.75.297 1.235.89.5.594.75 1.422.25.829.25 1.875v7.625h-1.14v-7.625q0-1.687-.766-2.64t-2.36-.953q-1.172 0-2.187.609-1 .594-1.797 1.656v8.953zm16.25.188q-1.203 0-1.89-.672-.673-.672-.673-2.078v-8.156h-1.718q-.125 0-.22-.063-.077-.078-.077-.203v-.453l2.031-.14.297-4.282q.016-.094.094-.172.078-.094.203-.094h.547v4.563h3.75v.844h-3.75v8.109q0 .484.125.844.125.344.343.578.22.234.516.344.313.093.656.093.438 0 .735-.125.312-.125.547-.265.234-.156.375-.281t.218-.125q.11 0 .203.125l.313.5q-.453.5-1.156.812-.703.297-1.47.297m9.837-12.313q1.297 0 2.297.438 1.016.437 1.719 1.25.703.797 1.062 1.937.36 1.125.36 2.532 0 1.39-.36 2.53-.359 1.126-1.062 1.938-.703.797-1.719 1.235-1 .422-2.297.422-1.281 0-2.297-.422-1-.438-1.703-1.235-.703-.812-1.078-1.937-.36-1.14-.36-2.531 0-1.407.36-2.532.375-1.14 1.078-1.937.703-.813 1.703-1.25 1.016-.438 2.297-.438m0 11.375q1.078 0 1.875-.359.797-.36 1.328-1.047.532-.687.797-1.656.266-.969.266-2.156t-.266-2.157q-.265-.984-.797-1.671-.53-.688-1.328-1.063-.797-.375-1.875-.375-1.062 0-1.86.375-.796.375-1.327 1.063-.532.687-.813 1.671-.265.97-.265 2.157t.265 2.156q.281.969.813 1.656.531.688 1.328 1.047.797.36 1.86.36"/><path d="M115.384 73.017h58.268v96.535h-58.268z"/><path stroke="#39ff14" stroke-width="2" stroke-linejoin="round" stroke-linecap="butt" d="M115.384 73.017h58.268v96.535h-58.268z"/></g></svg>