<svg fill="none" stroke-linecap="square" stroke-miterlimit="10" xmlns="http://www.w3.org/2000/svg" viewBox="407.88 228.76 156.5 35.13"><clipPath id="a"><path d="M0 0h960v720H0z"/></clipPath><g clip-path="url(#a)"><path d="M0 0h960v720H0z"/><path d="M405.646 221.795H871.44v28.756H405.646z"/><path fill="#434343" d="M407.88 257.635v-27.937h5.797v10.64q1.078-1.062 2.453-1.703 1.375-.656 3.219-.656 1.515 0 2.797.656 1.28.657 2.218 1.922.938 1.25 1.47 3.078.53 1.828.53 4.157 0 2.187-.609 4.046-.61 1.844-1.703 3.204-1.094 1.359-2.61 2.125-1.515.765-3.359.765-.86 0-1.547-.172-.687-.156-1.25-.468t-1.047-.735q-.468-.437-.921-.937l-.204.968q-.14.594-.484.829-.344.218-.906.218zm9.453-15.297q-.64 0-1.156.125-.516.11-.953.344-.438.219-.813.563-.36.343-.734.797v8.203q.64.734 1.406 1.03.766.282 1.61.282.812 0 1.484-.312.672-.328 1.156-1.016.5-.703.781-1.828t.282-2.734q0-1.516-.235-2.563-.219-1.047-.625-1.687-.39-.657-.953-.922-.562-.282-1.25-.282"/><path fill="#39ff14" d="M435.843 252.588h10.078v5.047h-16.39v-27.187h6.312z"/><path fill="#434343" d="M454.7 229.698v15.656h.86q.531 0 .812-.14.297-.157.563-.547l3.656-5.454q.313-.484.75-.703.453-.234 1.125-.234h5.297l-5 6.89q-.36.485-.781.86t-.906.672q.843.64 1.453 1.687l5.453 9.25h-5.219q-.656 0-1.14-.203-.47-.219-.766-.765l-3.656-6.844q-.266-.469-.547-.61-.282-.14-.844-.14h-1.11v8.562h-5.796v-27.937zm24.487-.938h3.578v35.125h-3.578zm29.466 28.875q-.563 0-.688-.515l-.266-2.375q-.765.75-1.53 1.343-.75.594-1.579 1.016-.812.406-1.766.61-.953.218-2.078.218-.953 0-1.859-.281-.89-.281-1.578-.86-.688-.578-1.11-1.484-.421-.906-.421-2.172 0-1.172.671-2.172.672-1.015 2.094-1.765 1.438-.75 3.672-1.188 2.25-.453 5.406-.531v-1.937q0-2.579-1.109-3.97-1.11-1.39-3.297-1.39-1.344 0-2.281.375t-1.594.828q-.656.438-1.062.813t-.688.375q-.375 0-.562-.328l-.313-.547q1.453-1.453 3.047-2.203 1.61-.75 3.64-.75 1.5 0 2.61.484 1.125.469 1.86 1.36.75.89 1.109 2.156.375 1.25.375 2.797v12.093zm-7.47-.984q1.079 0 1.985-.234t1.688-.657q.781-.422 1.453-1t1.312-1.25v-4.828q-2.64.063-4.562.39-1.906.329-3.156.891-1.235.563-1.829 1.344-.578.766-.578 1.75 0 .938.297 1.625.313.672.813 1.11.515.437 1.187.656.672.203 1.39.203m20.77-17.89q1.579 0 2.907.546 1.343.547 2.312 1.578.985 1.032 1.531 2.547.547 1.516.547 3.469 0 .406-.125.562-.11.157-.375.157h-13.422v.343q0 2.094.485 3.688.5 1.578 1.39 2.656.891 1.063 2.157 1.61 1.28.546 2.843.546 1.407 0 2.422-.312 1.032-.313 1.735-.688.703-.39 1.11-.687.405-.313.593-.313.25 0 .375.188l.484.594q-.453.562-1.187 1.047-.735.484-1.64.828-.907.343-1.938.547-1.032.218-2.079.218-1.906 0-3.484-.656-1.562-.672-2.687-1.937-1.11-1.282-1.72-3.11-.609-1.844-.609-4.219 0-2 .563-3.687.578-1.688 1.64-2.906 1.079-1.22 2.641-1.907 1.563-.703 3.531-.703m.032 1.327q-1.438 0-2.578.454-1.141.453-1.97 1.296-.827.829-1.343 2.016-.516 1.172-.687 2.625h12.25q0-1.5-.422-2.687-.407-1.188-1.157-2-.734-.829-1.78-1.266-1.048-.438-2.313-.438m12.059 17.547v-18.578h.922q.328 0 .453.14.14.126.172.438l.14 3.922q.907-2.25 2.39-3.531 1.5-1.281 3.673-1.281.844 0 1.547.187.718.172 1.359.5l-.25 1.235q-.062.296-.375.296-.11 0-.312-.062-.204-.078-.516-.172t-.766-.172q-.437-.078-1.015-.078-2.11 0-3.47 1.313-1.343 1.296-2.187 3.765v12.078zm21.882-18.875q2 0 3.578.688t2.656 1.937 1.64 3.016q.579 1.75.579 3.937 0 2.188-.578 3.938-.563 1.75-1.641 3.016-1.078 1.25-2.656 1.921-1.578.672-3.578.672t-3.579-.672q-1.562-.671-2.656-1.921-1.094-1.266-1.672-3.016-.562-1.75-.562-3.938 0-2.187.562-3.937.578-1.766 1.672-3.016t2.656-1.937q1.579-.688 3.579-.688m0 17.719q1.671 0 2.906-.562 1.234-.579 2.062-1.641.844-1.063 1.25-2.563t.407-3.375q0-1.843-.407-3.359t-1.25-2.578q-.828-1.078-2.062-1.656-1.235-.578-2.906-.578-1.657 0-2.907.578-1.234.578-2.062 1.656-.828 1.062-1.25 2.578t-.422 3.36q0 1.874.422 3.374t1.25 2.563 2.062 1.64q1.25.563 2.907.563"/></g></svg>