<svg xmlns="http://www.w3.org/2000/svg" fill="none" stroke-linecap="square" stroke-miterlimit="10" viewBox="52.8 49.28 374.57 35.13"><g clip-path="url(#a)"><path d="M0 0h566.93v113.386H0z"/><path d="M50.567 42.315h465.795v28.756H50.567z"/><path fill="#434343" d="M52.801 78.155V50.217h5.797v10.641q1.078-1.062 2.453-1.703 1.375-.656 3.22-.656 1.515 0 2.796.656t2.219 1.922q.937 1.25 1.468 3.078.532 1.828.532 4.156 0 2.188-.61 4.047-.61 1.844-1.703 3.203-1.094 1.36-2.61 2.125-1.515.766-3.359.766-.859 0-1.546-.172-.688-.156-1.25-.469t-1.047-.734q-.47-.438-.922-.938l-.203.97q-.14.593-.485.827-.343.219-.906.219zm9.453-15.297q-.64 0-1.156.125-.515.11-.953.344-.437.219-.812.562-.36.344-.735.797v8.203q.64.735 1.406 1.032.766.28 1.61.28.812 0 1.484-.312.672-.328 1.156-1.015.5-.703.782-1.828.28-1.125.28-2.735 0-1.515-.233-2.562-.22-1.047-.625-1.688-.391-.656-.954-.922-.562-.28-1.25-.28"/><path fill="#39ff14" d="M80.764 73.108h10.078v5.047h-16.39V50.967h6.312z"/><path fill="#434343" d="M99.622 50.217v15.657h.86q.53 0 .812-.14.297-.157.562-.548l3.657-5.453q.312-.484.75-.703.453-.234 1.125-.234h5.296l-5 6.89q-.359.485-.78.86-.423.375-.907.671.844.641 1.453 1.688l5.453 9.25h-5.219q-.656 0-1.14-.203-.469-.219-.766-.766l-3.656-6.844q-.266-.468-.547-.609t-.844-.14h-1.11v8.562h-5.796V50.217zm24.487-.937h3.578v35.125h-3.578zm29.465 28.875q-.563 0-.688-.516l-.265-2.375q-.766.75-1.531 1.344-.75.594-1.579 1.016-.812.406-1.765.61-.953.218-2.078.218-.953 0-1.86-.281-.89-.282-1.578-.86-.687-.578-1.11-1.484-.421-.906-.421-2.172 0-1.172.672-2.172.672-1.016 2.094-1.766 1.437-.75 3.671-1.187 2.25-.453 5.407-.531V66.06q0-2.578-1.11-3.969-1.11-1.39-3.297-1.39-1.343 0-2.28.375-.938.375-1.595.828-.656.437-1.062.812t-.688.375q-.375 0-.562-.328l-.313-.547q1.454-1.453 3.047-2.203 1.61-.75 3.64-.75 1.5 0 2.61.485 1.125.468 1.86 1.36.75.89 1.109 2.155.375 1.25.375 2.797v12.094zm-7.469-.984q1.078 0 1.985-.235.906-.234 1.687-.656t1.453-1 1.313-1.25v-4.828q-2.641.062-4.563.39-1.906.329-3.156.891-1.234.563-1.828 1.344-.578.765-.578 1.75 0 .937.297 1.625.312.672.812 1.11.516.437 1.188.655.671.204 1.39.204m20.77-17.891q1.578 0 2.906.547 1.344.547 2.312 1.578.985 1.031 1.532 2.547.547 1.515.547 3.469 0 .406-.125.562-.11.156-.375.156H160.25v.344q0 2.094.484 3.688.5 1.578 1.39 2.656.891 1.062 2.157 1.61 1.281.546 2.844.546 1.406 0 2.422-.312 1.03-.313 1.734-.688.703-.39 1.11-.687.406-.313.593-.313.25 0 .375.188l.484.593q-.453.563-1.187 1.047-.734.485-1.64.828-.907.344-1.938.547-1.031.219-2.078.219-1.907 0-3.485-.656-1.562-.672-2.687-1.938-1.11-1.281-1.719-3.11-.61-1.843-.61-4.218 0-2 .563-3.687.578-1.688 1.64-2.907 1.079-1.218 2.641-1.906 1.563-.703 3.532-.703m.03 1.328q-1.437 0-2.577.453t-1.969 1.297q-.828.828-1.344 2.016-.515 1.172-.687 2.625h12.25q0-1.5-.422-2.688-.406-1.187-1.156-2-.735-.828-1.782-1.265-1.046-.438-2.312-.438m12.06 17.547V59.577h.922q.328 0 .453.14.14.125.172.438l.14 3.922q.907-2.25 2.391-3.531 1.5-1.282 3.672-1.282.844 0 1.547.188.719.172 1.36.5l-.25 1.234q-.063.297-.376.297-.11 0-.312-.062-.203-.079-.516-.172-.312-.094-.765-.172-.438-.078-1.016-.078-2.11 0-3.469 1.312-1.344 1.297-2.187 3.766v12.078zm21.882-18.875q2 0 3.578.687t2.656 1.938 1.64 3.016q.579 1.75.579 3.937 0 2.188-.578 3.938-.563 1.75-1.64 3.015-1.079 1.25-2.657 1.922t-3.578.672-3.578-.672q-1.563-.672-2.657-1.922-1.093-1.265-1.671-3.015-.563-1.75-.563-3.938 0-2.187.563-3.937.578-1.766 1.671-3.016 1.094-1.25 2.657-1.938 1.578-.687 3.578-.687m0 17.719q1.672 0 2.906-.563 1.234-.578 2.063-1.64.843-1.063 1.25-2.563.406-1.5.406-3.375 0-1.844-.406-3.36t-1.25-2.577q-.829-1.079-2.063-1.657t-2.906-.578q-1.656 0-2.906.578-1.235.578-2.063 1.657-.828 1.062-1.25 2.578t-.422 3.36q0 1.874.422 3.374t1.25 2.563 2.063 1.64q1.25.563 2.906.563m15.413-26v27.156h-1.765V50.999zm13.569 8.281q1.578 0 2.906.547 1.344.547 2.313 1.578.984 1.031 1.53 2.547.548 1.515.548 3.469 0 .406-.125.562-.11.156-.375.156h-13.422v.344q0 2.094.484 3.688.5 1.578 1.39 2.656.891 1.062 2.157 1.61 1.281.546 2.844.546 1.406 0 2.422-.312 1.03-.313 1.734-.688.703-.39 1.11-.687.406-.313.593-.313.25 0 .375.188l.485.593q-.454.563-1.188 1.047-.734.485-1.64.828-.907.344-1.938.547-1.031.219-2.078.219-1.906 0-3.485-.656-1.562-.672-2.687-1.938-1.11-1.281-1.719-3.11-.61-1.843-.61-4.218 0-2 .563-3.687.578-1.688 1.64-2.907 1.079-1.218 2.642-1.906 1.562-.703 3.53-.703m.031 1.328q-1.437 0-2.578.453t-1.969 1.297q-.828.828-1.344 2.016-.515 1.172-.687 2.625h12.25q0-1.5-.422-2.688-.406-1.187-1.156-2-.735-.828-1.781-1.265-1.047-.438-2.313-.438m18.567 17.547h-1.563l-7.843-18.578h1.39q.266 0 .422.14t.235.313l6.125 14.656q.187.422.28.813.095.39.188.797.094-.407.188-.797.11-.407.281-.813l6.156-14.656q.094-.203.25-.328.157-.125.39-.125h1.345zm23.179 0q-.563 0-.688-.516l-.265-2.375q-.766.75-1.532 1.344-.75.594-1.578 1.016-.812.406-1.765.61-.954.218-2.079.218-.953 0-1.859-.281-.89-.282-1.578-.86t-1.11-1.484-.421-2.172q0-1.172.672-2.172.671-1.016 2.093-1.766 1.438-.75 3.672-1.187 2.25-.453 5.406-.531V66.06q0-2.578-1.109-3.969-1.11-1.39-3.297-1.39-1.344 0-2.281.375t-1.594.828q-.656.437-1.062.812t-.688.375q-.375 0-.562-.328l-.313-.547q1.453-1.453 3.047-2.203 1.61-.75 3.64-.75 1.5 0 2.61.485 1.125.468 1.86 1.36.75.89 1.109 2.155.375 1.25.375 2.797v12.094zm-7.469-.984q1.078 0 1.984-.235.907-.234 1.688-.656t1.453-1 1.312-1.25v-4.828q-2.64.062-4.562.39-1.906.329-3.156.891-1.235.563-1.828 1.344-.579.765-.579 1.75 0 .937.297 1.625.313.672.813 1.11.515.437 1.187.655.672.204 1.391.204m13.785.984V59.577h.969q.484 0 .547.469l.172 2.812q1.265-1.61 2.953-2.594 1.703-.984 3.765-.984 1.532 0 2.688.484 1.172.485 1.937 1.407.766.921 1.157 2.203.406 1.281.406 2.906v11.875h-1.781V66.28q0-2.61-1.203-4.094-1.188-1.484-3.641-1.484-1.828 0-3.406.953-1.563.937-2.797 2.578v13.922zm25.257.297q-1.875 0-2.937-1.047-1.047-1.047-1.047-3.219V61.483h-2.672q-.203 0-.344-.11-.125-.109-.125-.312v-.687l3.172-.235.453-6.64q.016-.172.14-.297.126-.125.329-.125h.828v7.078h5.844v1.328h-5.844v12.61q0 .765.203 1.312t.547.906q.344.344.797.516.469.172 1.016.172.672 0 1.156-.188.484-.203.844-.437.359-.235.578-.422.219-.203.36-.203t.296.187l.484.781q-.718.782-1.812 1.266-1.078.469-2.266.469m20.089-.297q-.562 0-.687-.516l-.266-2.375q-.766.75-1.531 1.344-.75.594-1.578 1.016-.813.406-1.766.61-.953.218-2.078.218-.953 0-1.86-.281-.89-.282-1.578-.86-.687-.578-1.11-1.484-.421-.906-.421-2.172 0-1.172.672-2.172.672-1.016 2.094-1.766 1.437-.75 3.672-1.187 2.25-.453 5.406-.531V66.06q0-2.578-1.11-3.969-1.109-1.39-3.296-1.39-1.344 0-2.282.375t-1.593.828q-.657.437-1.063.812t-.687.375q-.375 0-.563-.328l-.312-.547q1.453-1.453 3.046-2.203 1.61-.75 3.641-.75 1.5 0 2.61.485 1.124.468 1.859 1.36.75.89 1.11 2.155.374 1.25.374 2.797v12.094zm-7.469-.984q1.078 0 1.985-.235.906-.234 1.687-.656t1.453-1 1.313-1.25v-4.828q-2.64.062-4.563.39-1.906.329-3.156.891-1.234.563-1.828 1.344-.578.765-.578 1.75 0 .937.297 1.625.312.672.812 1.11.516.437 1.188.655.672.204 1.39.204m13.785.984V59.577h.97q.484 0 .546.469l.172 2.687q.547-.766 1.156-1.39.625-.641 1.313-1.094.703-.453 1.5-.703.797-.266 1.672-.266 2.03 0 3.234 1.187 1.219 1.188 1.656 3.297.328-1.156.938-2 .61-.843 1.39-1.39.782-.547 1.703-.813.938-.281 1.907-.281 1.375 0 2.468.469 1.11.453 1.875 1.36.782.89 1.188 2.202.422 1.297.422 2.969v11.875h-1.797V66.28q0-2.719-1.172-4.14-1.172-1.438-3.36-1.438-.968 0-1.859.36-.89.359-1.578 1.062-.672.687-1.078 1.734-.39 1.047-.39 2.422v11.875h-1.782V66.28q0-2.703-1.078-4.14-1.078-1.438-3.156-1.438-1.516 0-2.813.906-1.28.906-2.28 2.516v14.031zm36.68-18.875q1.578 0 2.906.547 1.343.547 2.312 1.578.985 1.031 1.531 2.547.547 1.515.547 3.469 0 .406-.125.562-.109.156-.375.156h-13.422v.344q0 2.094.485 3.688.5 1.578 1.39 2.656.891 1.062 2.157 1.61 1.281.546 2.843.546 1.407 0 2.422-.312 1.032-.313 1.735-.688.703-.39 1.11-.687.405-.313.593-.313.25 0 .375.188l.484.593q-.453.563-1.187 1.047-.735.485-1.64.828-.907.344-1.938.547-1.032.219-2.079.219-1.906 0-3.484-.656-1.562-.672-2.687-1.938-1.11-1.281-1.72-3.11-.609-1.843-.609-4.218 0-2 .563-3.687.578-1.688 1.64-2.907 1.079-1.218 2.641-1.906 1.563-.703 3.531-.703m.03 1.328q-1.437 0-2.577.453-1.141.453-1.97 1.297-.827.828-1.343 2.016-.516 1.172-.687 2.625h12.25q0-1.5-.422-2.688-.407-1.187-1.157-2-.734-.828-1.78-1.265-1.048-.438-2.313-.438m12.06 17.547V59.577h.969q.484 0 .546.469l.172 2.812q1.266-1.61 2.953-2.594 1.704-.984 3.766-.984 1.531 0 2.688.484 1.171.485 1.937 1.407.766.921 1.156 2.203.407 1.281.407 2.906v11.875h-1.782V66.28q0-2.61-1.203-4.094-1.187-1.484-3.64-1.484-1.829 0-3.407.953-1.562.937-2.797 2.578v13.922zm25.257.297q-1.875 0-2.938-1.047-1.046-1.047-1.046-3.219V61.483h-2.672q-.203 0-.344-.11-.125-.109-.125-.312v-.687l3.172-.235.453-6.64q.016-.172.14-.297.126-.125.329-.125h.828v7.078h5.844v1.328h-5.844v12.61q0 .765.203 1.312t.547.906q.344.344.797.516.468.172 1.015.172.672 0 1.157-.188.484-.203.843-.437.36-.235.578-.422.22-.203.36-.203t.297.187l.484.781q-.719.782-1.812 1.266-1.079.469-2.266.469m15.307-19.172q2 0 3.579.687 1.578.688 2.656 1.938t1.64 3.016q.579 1.75.579 3.937 0 2.188-.579 3.938-.562 1.75-1.64 3.015-1.078 1.25-2.656 1.922t-3.579.672-3.578-.672q-1.562-.672-2.656-1.922-1.094-1.265-1.672-3.015-.562-1.75-.562-3.938 0-2.187.562-3.937.578-1.766 1.672-3.016t2.656-1.938q1.578-.687 3.578-.687m0 17.719q1.672 0 2.907-.563 1.234-.578 2.062-1.64.844-1.063 1.25-2.563t.406-3.375q0-1.844-.406-3.36t-1.25-2.577q-.828-1.079-2.062-1.657-1.235-.578-2.907-.578-1.656 0-2.906.578-1.234.578-2.062 1.657-.828 1.062-1.25 2.578t-.422 3.36q0 1.874.422 3.374t1.25 2.563 2.062 1.64q1.25.563 2.906.563"/></g></svg>