<svg xmlns="http://www.w3.org/2000/svg" width="269" height="92" viewBox="0 0 269 92" fill="none"><g clip-path="url(#clip0_6078_498)"><path d="M253.45 91.9214H255.501L269 76.1419V21.0177L0.354875 0H0V0.268154L20.1495 92H253.588" fill="#7F633E"></path><path d="M49.7793 50.0663C53.0331 50.0663 54.7199 48.8134 54.7199 47.3062C54.7199 45.332 52.7197 44.6385 49.0603 44.1068C44.0875 43.3532 41.5849 41.6287 41.5849 38.7114C41.5849 35.794 44.4608 33.3159 50.1249 33.3159C52.9409 33.3159 55.2545 33.8476 57.0381 33.8476C57.2547 33.8476 57.5082 33.7829 57.7893 33.6904L56.7892 37.6434C54.7568 36.6077 52.4432 36.1038 49.7516 36.1038C46.908 36.1038 45.4378 37.047 45.4378 38.3323C45.4378 39.4002 46.6592 40.3711 49.0649 40.778C51.503 41.1849 53.6921 41.3744 55.508 42.2528C57.605 43.2561 58.665 44.8558 58.665 46.8346C58.665 50.4408 55.4112 52.8588 49.5028 52.8588C46.7191 52.8588 44.5622 52.3549 43.1242 52.3549C42.8108 52.3549 42.5297 52.4473 42.2163 52.6045L41.1517 48.0875C44.0275 49.4052 46.9357 50.0663 49.7839 50.0663H49.7793Z" fill="#FDF9EE"></path><path d="M90.4977 52.4196H84.3035C84.7414 51.9804 84.9903 51.5411 84.9903 51.0095C84.9903 50.5379 84.8658 50.0663 84.7414 49.7843L84.0224 48.3418H72.2332L71.6387 49.567C71.482 49.9137 71.3575 50.3807 71.3575 50.8846C71.3575 51.5134 71.6064 52.0451 72.0442 52.4242H65.8224C66.8548 51.3886 67.4815 50.3206 68.0116 49.2572L75.1091 35.1375C75.2658 34.7908 75.3579 34.5411 75.3579 34.3515C75.3579 34.2591 75.2934 34.0372 75.1413 33.7551H81.4599C81.3355 34.0048 81.2387 34.2267 81.2387 34.3839C81.2387 34.5411 81.3032 34.7584 81.4599 35.0728L88.3086 49.2526C88.9031 50.4778 89.5898 51.5411 90.4977 52.4196ZM82.8057 45.5493L78.0541 36.0113L73.519 45.5493H82.8057Z" fill="#FDF9EE"></path><path d="M114.238 40.9999V37.1117C114.238 35.3872 113.864 34.3515 112.767 33.7551H119.399C118.302 34.3839 117.929 35.3872 117.929 37.1117V49.063C117.929 50.7552 118.275 51.7908 119.399 52.4196H112.767C113.864 51.7908 114.238 50.7552 114.238 49.063V43.8248H102.886V49.063C102.886 50.7552 103.232 51.7908 104.356 52.4196H97.7243C98.8488 51.7908 99.1945 50.7552 99.1945 49.063V37.1117C99.1945 35.4149 98.8488 34.3839 97.7243 33.7551H104.356C103.259 34.3515 102.886 35.3872 102.886 37.1117V40.9999H114.238Z" fill="#FDF9EE"></path><path d="M133.41 33.7551C133.004 33.9123 132.848 34.259 132.848 34.8832C132.848 35.4149 133.129 35.8541 133.567 36.4505L138.664 43.478L143.95 36.358C144.356 35.794 144.577 35.29 144.577 34.8185C144.577 34.3469 144.388 33.9724 144.015 33.7505H150.49C149.366 34.7214 148.393 35.9142 147.393 37.2319L140.296 46.4554V49.0584C140.296 50.7829 140.733 51.8185 141.798 52.4149H135.166C136.323 51.7584 136.604 50.7228 136.604 49.0584V46.5155L129.442 36.788C128.317 35.2808 127.377 34.2174 126.377 33.7458H133.415L133.41 33.7551Z" fill="#FDF9EE"></path><path d="M167.75 33.3159C174.35 33.3159 178.322 37.0192 178.322 43.0111C178.322 49.0029 174.225 52.8912 167.284 52.8912C160.344 52.8912 156.712 49.1278 156.712 43.196C156.712 37.2642 160.809 33.3113 167.75 33.3113V33.3159ZM160.62 43.2885C160.62 47.5234 163.123 50.0663 167.252 50.0663C171.723 50.0663 174.35 47.3385 174.35 42.9741C174.35 38.6096 171.944 36.1038 167.782 36.1038C163.312 36.1038 160.62 38.8038 160.62 43.2885Z" fill="#FDF9EE"></path><path d="M193.868 33.7551C192.743 34.3839 192.398 35.4195 192.398 37.1117V44.9852C192.398 48.4343 194.149 50.0339 197.873 50.0339C201.597 50.0339 203.316 48.4343 203.316 44.9852V37.1117C203.316 35.4473 203.099 34.444 201.878 33.7551H208.478C207.478 34.2868 206.975 35.3872 206.975 37.1117V45.1101C206.975 50.4454 204.132 52.8588 197.748 52.8588C191.365 52.8588 188.711 50.3483 188.711 45.1101V37.1117C188.711 35.3872 188.305 34.3192 187.24 33.7551H193.872H193.868Z" fill="#FDF9EE"></path><path d="M221.986 49.063C222.018 50.7274 222.267 51.7307 223.456 52.4196H217.138C218.262 51.7908 218.608 50.7552 218.608 49.063V37.1117C218.608 35.4149 218.262 34.3839 217.138 33.7551H224.613C224.521 33.9447 224.456 34.1019 224.456 34.1943C224.456 34.3515 224.548 34.5087 224.705 34.7584L233.9 49.3774L233.835 37.1117C233.835 35.3872 233.429 34.3192 232.365 33.7551H238.527C237.181 34.5411 237.149 35.5767 237.149 36.9868V50.6951C237.149 51.3562 237.213 51.8555 237.587 52.4196H231.521C231.646 52.2023 231.71 52.0127 231.71 51.8879C231.71 51.7631 231.618 51.5735 231.462 51.3238L221.765 36.3581L221.981 49.063H221.986Z" fill="#FDF9EE"></path><path d="M78.6256 69.9421V69.022C78.6256 68.6152 78.538 68.3701 78.28 68.2314H79.8423C79.5842 68.3794 79.4967 68.6152 79.4967 69.022V71.8423C79.4967 72.2399 79.5796 72.4849 79.8423 72.6329H78.28C78.538 72.4849 78.6256 72.2399 78.6256 71.8423V70.6078H75.9479V71.8423C75.9479 72.2399 76.0309 72.4849 76.2936 72.6329H74.7312C74.9985 72.4849 75.0769 72.2399 75.0769 71.8423V69.022C75.0769 68.6244 74.9939 68.3794 74.7312 68.2314H76.2936C76.0355 68.3701 75.9479 68.6152 75.9479 69.022V69.9421H78.6256Z" fill="#FDF9EE"></path><path d="M83.3312 69.0267V71.8469C83.3312 72.2445 83.4141 72.4896 83.6768 72.6375H82.1052C82.3633 72.4896 82.4509 72.2445 82.4509 71.8469V69.0267C82.4509 68.6198 82.3633 68.3748 82.1052 68.2361H83.6768C83.4187 68.3748 83.3312 68.6198 83.3312 69.0267Z" fill="#FDF9EE"></path><path d="M90.5807 72.4016C90.2351 72.4016 89.5714 72.7437 88.5805 72.7437C86.9214 72.7437 85.9996 71.8792 85.9996 70.5107C85.9996 69.0682 86.9905 68.1296 88.7511 68.1296C89.5023 68.1296 90.0323 68.2776 90.3595 68.2776C90.4609 68.2776 90.5669 68.2637 90.6683 68.2406L90.401 69.1745C89.8848 68.9017 89.2811 68.7584 88.7465 68.7584C87.5943 68.7584 86.9168 69.4149 86.9168 70.506C86.9168 71.5139 87.5159 72.1103 88.5759 72.1103C89.5576 72.1103 89.9908 71.8144 89.9908 71.2227V70.6447H88.8386C88.6312 70.6447 88.4699 70.6725 88.2856 70.8019L88.4331 70.3119C88.5068 70.0622 88.6266 70.016 88.9262 70.016H90.9541C90.8434 70.15 90.8342 70.261 90.8342 70.3951V72.4663C90.7328 72.4294 90.6499 72.4062 90.5669 72.4062L90.5807 72.4016Z" fill="#FDF9EE"></path><path d="M97.199 69.9421V69.022C97.199 68.6152 97.1114 68.3701 96.8533 68.2314H98.4157C98.1576 68.3794 98.07 68.6152 98.07 69.022V71.8423C98.07 72.2399 98.153 72.4849 98.4157 72.6329H96.8533C97.1114 72.4849 97.199 72.2399 97.199 71.8423V70.6078H94.5213V71.8423C94.5213 72.2399 94.6042 72.4849 94.8669 72.6329H93.3046C93.5719 72.4849 93.6502 72.2399 93.6502 71.8423V69.022C93.6502 68.6244 93.5673 68.3794 93.3046 68.2314H94.8669C94.6088 68.3701 94.5213 68.6152 94.5213 69.022V69.9421H97.199Z" fill="#FDF9EE"></path><path d="M105.854 68.5366C105.854 68.6383 105.877 68.7585 105.919 68.8464L107.357 71.8746L108.767 68.9573C108.827 68.8325 108.864 68.7123 108.864 68.6013C108.864 68.4025 108.804 68.2823 108.67 68.2314H110.182C109.951 68.4534 109.804 68.7123 109.666 68.9804L107.924 72.3277C107.887 72.3925 107.873 72.4526 107.873 72.4895C107.873 72.5173 107.896 72.5728 107.924 72.6375H106.698C106.735 72.5728 106.744 72.5265 106.744 72.5034C106.744 72.4757 106.721 72.4063 106.679 72.3185L105.011 68.9897C104.886 68.7308 104.744 68.4719 104.508 68.2361H106.052C105.928 68.2869 105.854 68.3933 105.854 68.5412V68.5366Z" fill="#FDF9EE"></path><path d="M117.09 72.6375H115.629C115.731 72.5358 115.791 72.4294 115.791 72.3046C115.791 72.1937 115.763 72.0827 115.731 72.018L115.56 71.6758H112.781L112.643 71.9625C112.606 72.0457 112.578 72.1567 112.578 72.2723C112.578 72.4202 112.638 72.545 112.74 72.6329H111.27C111.514 72.3878 111.661 72.1382 111.786 71.8839L113.459 68.5551C113.496 68.4719 113.519 68.4164 113.519 68.3701C113.519 68.347 113.505 68.2962 113.468 68.2314H114.957C114.929 68.2915 114.906 68.3424 114.906 68.3794C114.906 68.4164 114.92 68.4672 114.957 68.5412L116.574 71.8885C116.712 72.1752 116.878 72.4294 117.09 72.6375ZM115.275 71.0147L114.155 68.7631L113.085 71.0147H115.275Z" fill="#FDF9EE"></path><path d="M119.012 68.2314H120.584C120.335 68.3655 120.229 68.6152 120.229 69.0082V72.0133H121.584C122.335 72.0133 122.907 71.8746 123.312 71.5788C123.174 71.9764 123.027 72.2214 123.027 72.3786C123.027 72.4294 123.036 72.5173 123.063 72.6375H119.012C119.261 72.4988 119.358 72.2584 119.358 71.8608V69.0128C119.358 68.6152 119.257 68.3701 119.012 68.2361V68.2314Z" fill="#FDF9EE"></path><path d="M126.778 68.2314C126.511 68.3794 126.432 68.6244 126.432 69.022V70.8806C126.432 71.6943 126.847 72.0734 127.723 72.0734C128.598 72.0734 129.009 71.6943 129.009 70.8806V69.022C129.009 68.629 128.958 68.3933 128.668 68.2314H130.225C129.99 68.3563 129.87 68.6152 129.87 69.022V70.9084C129.87 72.1659 129.198 72.7346 127.695 72.7346C126.193 72.7346 125.561 72.1428 125.561 70.9084V69.022C125.561 68.6152 125.465 68.3655 125.216 68.2314H126.778Z" fill="#FDF9EE"></path><path d="M132.829 71.8608V69.0128C132.829 68.6152 132.728 68.3702 132.484 68.2361H137C136.973 68.3378 136.95 68.421 136.95 68.4811C136.95 68.5921 137.06 68.814 137.162 69.1839C136.742 68.9388 136.217 68.8649 135.539 68.8649H133.7V70.0484H135.765C135.977 70.0484 136.171 70.0115 136.355 69.9375L136.051 70.446C135.963 70.594 135.816 70.668 135.608 70.668H133.696V72.0087H135.59C136.364 72.0087 136.977 71.8377 137.323 71.5788C137.175 71.9764 137.028 72.2214 137.028 72.3786C137.028 72.4387 137.037 72.5173 137.065 72.6375H132.474C132.723 72.4988 132.82 72.2584 132.82 71.8608H132.829Z" fill="#FDF9EE"></path><path d="M145.218 72.6375H143.655C143.923 72.4803 144.001 72.2445 144.001 71.8469V69.0036C144.001 68.6106 143.9 68.3655 143.655 68.2361H145.955C146.642 68.2361 147.149 68.25 147.554 68.5181C147.946 68.7678 148.153 69.1376 148.153 69.6046C148.153 70.6032 147.425 71.0841 145.964 71.0841H144.872V71.8469C144.872 72.2538 144.96 72.4896 145.218 72.6375ZM145.877 70.4553C146.785 70.4553 147.227 70.2472 147.227 69.6416C147.227 69.0359 146.785 68.8649 145.891 68.8649H144.872V70.4553H145.877Z" fill="#FDF9EE"></path><path d="M151.877 72.6375H150.315C150.582 72.4803 150.661 72.2445 150.661 71.8469V69.0128C150.661 68.6152 150.559 68.3702 150.315 68.2361H152.933C153.587 68.2361 154.067 68.2592 154.38 68.4118C154.799 68.6198 155.03 69.0036 155.03 69.4983C155.03 70.127 154.597 70.5709 153.79 70.7188C154.186 70.8899 154.431 71.1858 154.684 71.5834C154.956 72.0041 155.15 72.3879 155.481 72.6329H153.919C154.002 72.5682 154.016 72.4988 154.016 72.3971C154.016 72.1844 153.891 71.8654 153.601 71.514C153.242 71.0702 152.91 70.8714 152.334 70.8714H151.536V71.8423C151.536 72.2492 151.624 72.4849 151.882 72.6329L151.877 72.6375ZM152.933 70.2519C153.73 70.2519 154.099 70.0808 154.099 69.5584C154.099 68.9804 153.73 68.8649 152.965 68.8649H151.536V70.2565H152.937L152.933 70.2519Z" fill="#FDF9EE"></path><path d="M160.187 68.1296C161.745 68.1296 162.68 69.0035 162.68 70.4182C162.68 71.8329 161.713 72.7484 160.076 72.7484C158.44 72.7484 157.583 71.8607 157.583 70.4598C157.583 69.0589 158.551 68.1296 160.187 68.1296ZM158.505 70.4829C158.505 71.4816 159.095 72.0826 160.067 72.0826C161.123 72.0826 161.74 71.44 161.74 70.4089C161.74 69.3779 161.173 68.7908 160.192 68.7908C159.136 68.7908 158.5 69.4288 158.5 70.4875L158.505 70.4829Z" fill="#FDF9EE"></path><path d="M166.566 72.6375H165.003C165.27 72.4803 165.349 72.2445 165.349 71.8469V69.0036C165.349 68.6106 165.247 68.3655 165.003 68.2361H167.303C167.99 68.2361 168.497 68.25 168.902 68.5181C169.294 68.7678 169.501 69.1376 169.501 69.6046C169.501 70.6032 168.773 71.0841 167.312 71.0841H166.22V71.8469C166.22 72.2538 166.307 72.4896 166.566 72.6375ZM167.225 70.4553C168.133 70.4553 168.575 70.2472 168.575 69.6416C168.575 69.0359 168.133 68.8649 167.238 68.8649H166.22V70.4553H167.225Z" fill="#FDF9EE"></path><path d="M172.008 71.8608V69.0128C172.008 68.6152 171.907 68.3702 171.663 68.2361H176.179C176.152 68.3378 176.129 68.421 176.129 68.4811C176.129 68.5921 176.239 68.814 176.341 69.1839C175.921 68.9388 175.396 68.8649 174.718 68.8649H172.88V70.0484H174.944C175.156 70.0484 175.35 70.0115 175.534 69.9375L175.23 70.446C175.142 70.594 174.995 70.668 174.788 70.668H172.875V72.0087H174.769C175.543 72.0087 176.156 71.8377 176.502 71.5788C176.355 71.9764 176.207 72.2214 176.207 72.3786C176.207 72.4387 176.216 72.5173 176.244 72.6375H171.654C171.902 72.4988 171.999 72.2584 171.999 71.8608H172.008Z" fill="#FDF9EE"></path><path d="M180.231 72.6375H178.668C178.935 72.4803 179.014 72.2445 179.014 71.8469V69.0128C179.014 68.6152 178.912 68.3702 178.668 68.2361H181.286C181.94 68.2361 182.42 68.2592 182.733 68.4118C183.152 68.6198 183.383 69.0036 183.383 69.4983C183.383 70.127 182.95 70.5709 182.143 70.7188C182.54 70.8899 182.784 71.1858 183.037 71.5834C183.309 72.0041 183.503 72.3879 183.835 72.6329H182.272C182.355 72.5682 182.369 72.4988 182.369 72.3971C182.369 72.1844 182.245 71.8654 181.954 71.514C181.595 71.0702 181.263 70.8714 180.687 70.8714H179.889V71.8423C179.889 72.2492 179.977 72.4849 180.235 72.6329L180.231 72.6375ZM181.286 70.2519C182.083 70.2519 182.452 70.0808 182.452 69.5584C182.452 68.9804 182.083 68.8649 181.318 68.8649H179.889V70.2565H181.291L181.286 70.2519Z" fill="#FDF9EE"></path><path d="M187.554 71.8423V68.8602H187.236C186.563 68.8602 186.033 68.9342 185.614 69.1792C185.715 68.8094 185.826 68.5874 185.826 68.4672C185.826 68.421 185.803 68.3424 185.775 68.2314H190.209C190.181 68.3332 190.158 68.4071 190.158 68.4765C190.158 68.5874 190.259 68.8094 190.365 69.1792C189.946 68.9342 189.43 68.8602 188.748 68.8602H188.425V71.8423C188.425 72.2353 188.559 72.5173 188.784 72.6329H187.222C187.531 72.4572 187.554 72.2121 187.554 71.8423Z" fill="#FDF9EE"></path><path d="M193.601 69.0267V71.8469C193.601 72.2445 193.684 72.4896 193.946 72.6375H192.375C192.633 72.4896 192.72 72.2445 192.72 71.8469V69.0267C192.72 68.6198 192.633 68.3748 192.375 68.2361H193.946C193.688 68.3748 193.601 68.6198 193.601 69.0267Z" fill="#FDF9EE"></path><path d="M196.564 71.8608V69.0128C196.564 68.6152 196.463 68.3702 196.218 68.2361H200.735C200.707 68.3378 200.684 68.421 200.684 68.4811C200.684 68.5921 200.795 68.814 200.896 69.1839C200.477 68.9388 199.951 68.8649 199.274 68.8649H197.435V70.0484H199.5C199.712 70.0484 199.905 70.0115 200.09 69.9375L199.786 70.446C199.698 70.594 199.55 70.668 199.343 70.668H197.43V72.0087H199.325C200.099 72.0087 200.712 71.8377 201.058 71.5788C200.91 71.9764 200.763 72.2214 200.763 72.3786C200.763 72.4387 200.772 72.5173 200.799 72.6375H196.209C196.458 72.4988 196.555 72.2584 196.555 71.8608H196.564Z" fill="#FDF9EE"></path><path d="M205.265 72.0826C206.03 72.0826 206.431 71.7867 206.431 71.4307C206.431 70.9638 205.961 70.8019 205.095 70.6771C203.924 70.5014 203.33 70.0946 203.33 69.4057C203.33 68.7168 204.007 68.1343 205.344 68.1343C206.007 68.1343 206.551 68.2591 206.975 68.2591C207.026 68.2591 207.086 68.2452 207.15 68.2221L206.915 69.156C206.436 68.911 205.888 68.7954 205.256 68.7954C204.583 68.7954 204.238 69.0173 204.238 69.3225C204.238 69.5721 204.523 69.8033 205.095 69.9004C205.671 69.9975 206.187 70.0391 206.616 70.2472C207.109 70.4829 207.362 70.8621 207.362 71.329C207.362 72.1797 206.597 72.7484 205.201 72.7484C204.546 72.7484 204.035 72.6282 203.694 72.6282C203.62 72.6282 203.556 72.6513 203.482 72.6883L203.233 71.6249C203.91 71.9347 204.597 72.0919 205.27 72.0919L205.265 72.0826Z" fill="#FDF9EE"></path></g><defs><clipPath id="clip0_6078_498"><rect width="269" height="92" fill="white"></rect></clipPath></defs></svg>